<svg width="112" height="19" viewBox="0 0 112 19" fill="none" xmlns="http://www.w3.org/2000/svg">
<path d="M9.552 1.27905L12.0387 6.65722L17.5995 7.52495L13.5758 11.7089L14.5254 17.6198L9.552 14.8276L4.57862 17.6198L5.52823 11.7089L1.50446 7.52495L7.06531 6.65722L9.552 1.27905Z" fill="#1E1D1D" stroke="#1E1D1D" stroke-width="2" stroke-linecap="round" stroke-linejoin="round"/>
<path d="M56.2278 1L58.7145 6.37817L64.2753 7.24589L60.2515 11.4299L61.2011 17.3407L56.2278 14.5485L51.2544 17.3407L52.204 11.4299L48.1802 7.24589L53.7411 6.37817L56.2278 1Z" fill="#1E1D1D" stroke="#1E1D1D" stroke-width="2" stroke-linecap="round" stroke-linejoin="round"/>
<path d="M79.5656 1L82.0523 6.37817L87.6131 7.24589L83.5894 11.4299L84.539 17.3407L79.5656 14.5485L74.5922 17.3407L75.5418 11.4299L71.518 7.24589L77.0789 6.37817L79.5656 1Z" fill="#1E1D1D" stroke="#1E1D1D" stroke-width="2" stroke-linecap="round" stroke-linejoin="round"/>
<path d="M102.501 1L104.988 6.37817L110.549 7.24589L106.525 11.4299L107.475 17.3407L102.501 14.5485L97.5277 17.3407L98.4774 11.4299L94.4536 7.24589L100.014 6.37817L102.501 1Z" fill="#1E1D1D" stroke="#1E1D1D" stroke-width="2" stroke-linecap="round" stroke-linejoin="round"/>
<path d="M32.8899 1L35.3766 6.37817L40.9374 7.24589L36.9137 11.4299L37.8633 17.3407L32.8899 14.5485L27.9165 17.3407L28.8661 11.4299L24.8423 7.24589L30.4032 6.37817L32.8899 1Z" fill="#1E1D1D" stroke="#1E1D1D" stroke-width="2" stroke-linecap="round" stroke-linejoin="round"/>
</svg>
